# Blender v2.79 (sub 0) OBJ File: 'mouth.blend'
# www.blender.org
o mouth

v 0.909291 -0.100017 0.017182
v -0.914971 -0.100017 0.017182
v -0.002840 -0.477834 0.017182
v -1.156605 0.235232 0.017182
v -0.579722 -0.341651 0.017182
v 0.574042 -0.341651 0.017182
v 1.150925 0.235232 0.017182
v 0.895365 -0.086091 -0.207369
v -0.901045 -0.086091 -0.207369
v -0.776809 -0.219845 0.017182
v 0.310019 -0.439320 0.017182
v 1.029119 0.038145 0.017182
v 0.895364 -0.086091 0.241733
v -0.901045 -0.086091 0.241733
v -1.034799 0.038145 0.017182
v -0.315698 -0.439320 0.017182
v 0.771129 -0.219845 0.017182
v -0.002840 -0.439320 -0.295677
v 1.123119 0.249135 -0.264308
v 0.560140 -0.313845 0.298672
v 0.560140 -0.313845 -0.264308
v -0.565820 -0.313845 -0.264308
v -1.128799 0.249134 0.298672
v -1.128799 0.249134 -0.264308
v -0.565820 -0.313845 0.298672
v 1.123119 0.249134 0.298672
v 1.009079 0.053175 0.270162
v -0.761779 -0.199805 0.270162
v -1.014759 0.053175 -0.235798
v -1.014759 0.053175 0.270162
v -0.306883 -0.404061 -0.286862
v 0.756099 -0.199805 -0.235798
v 0.756099 -0.199805 0.270162
v 1.009079 0.053175 -0.235798
v 0.301204 -0.404061 -0.286862
v -0.761779 -0.199805 -0.235798
v -0.002840 -0.442629 0.303155
v 0.884055 -0.074782 0.302488
v -0.889710 -0.074756 0.302628
v 0.559512 -0.312591 0.302900
v -1.127776 0.249646 0.302120
v -0.565179 -0.312565 0.302989
v 1.122149 0.249619 0.301942
v 1.001444 0.058900 0.302261
v -0.515956 -0.331218 0.303015
v -0.307408 -0.406160 0.303120
v -0.755956 -0.192041 0.302808
v -1.007087 0.058929 0.302420
v 0.750297 -0.192069 0.302689
v 0.511214 -0.330891 0.302933
v 0.301730 -0.406166 0.303072
v -0.002840 -0.439167 -0.296089
v 0.555175 -0.303916 -0.297777
v -0.561312 -0.304831 -0.294694
v -1.120062 0.253503 -0.293761
v 0.878322 -0.069048 -0.298926
v -0.884909 -0.069955 -0.294057
v -1.000945 0.063535 -0.293883
v -0.306149 -0.401123 -0.295293
v 0.744928 -0.184909 -0.298431
v 0.993955 0.064518 -0.299391
v 0.300324 -0.400540 -0.296968
v -0.751344 -0.185892 -0.294300
v 1.156320 0.249816 0.017182
v -1.164840 0.257494 0.017182
v 1.123486 0.250186 0.298763
v 1.123303 0.249663 -0.264354
v -1.131582 0.257122 -0.265004
v -1.131765 0.257647 0.299413
v 1.122367 0.250193 0.301941
v -1.130814 0.257646 0.302108
v 1.122059 0.249664 -0.267879
v -1.121408 0.257061 -0.293762
v 1.109591 0.249676 -0.299912
v -0.323712 0.254976 0.302048
v -0.325004 0.254425 -0.295957
v -0.368479 0.118956 -0.295689
v -0.368700 0.114796 0.302279
v -0.427922 0.255321 0.302056
v -0.425712 0.254758 -0.295679
v 0.436418 0.251904 -0.298056
v 0.437714 0.252458 0.301992
v 0.393535 0.114797 0.302219
v 0.393756 0.118971 -0.297793
v 0.337595 0.252231 -0.297784
v 0.335377 0.252796 0.301999
vn -0.6414 -0.7609 -0.0984
vn 0.1178 -0.9856 -0.1213
vn 0.7609 -0.6414 -0.0984
vn 0.9356 -0.3357 -0.1095
vn 0.5118 -0.8521 -0.1094
vn -0.3359 -0.9345 -0.1181
vn -0.8521 -0.5118 -0.1094
vn 0.0001 0.0016 1.0000
vn -0.3367 -0.8880 0.3134
vn 0.8878 -0.3370 0.3133
vn 0.7526 -0.6527 0.0872
vn 0.8465 -0.5232 0.0981
vn -0.6527 -0.7526 0.0872
vn -0.5232 -0.8465 0.0981
vn 0.0033 1.0000 -0.0009
vn -0.8046 -0.5043 -0.3135
vn -0.7238 -0.6288 -0.2843
vn -0.7609 -0.6414 -0.0984
vn -0.8465 -0.5232 0.0981
vn -0.7526 -0.6527 0.0872
vn -0.3332 -0.8810 -0.3360
vn -0.1177 -0.9312 -0.3449
vn -0.1178 -0.9856 -0.1213
vn 0.5038 -0.8049 -0.3135
vn 0.6281 -0.7244 -0.2843
vn 0.6414 -0.7609 -0.0984
vn 0.5232 -0.8465 0.0981
vn 0.6527 -0.7526 0.0872
vn 0.8878 -0.3370 -0.3134
vn 0.7244 -0.6281 -0.2843
vn 0.8129 -0.5085 -0.2840
vn 0.8521 -0.5118 -0.1094
vn 0.1177 -0.9313 -0.3446
vn 0.3330 -0.8811 -0.3360
vn 0.3359 -0.9345 -0.1181
vn -0.6288 -0.7238 -0.2843
vn -0.5043 -0.8046 -0.3135
vn -0.5118 -0.8521 -0.1094
vn 0.3359 -0.9345 0.1181
vn -0.3355 -0.9357 0.1090
vn 0.9323 -0.3449 0.1091
vn 0.8101 -0.5128 0.2841
vn -0.5128 -0.8101 0.2841
vn -0.8101 -0.5128 0.2841
vn 0.5128 -0.8101 0.2841
vn 0.3367 -0.8879 0.3134
vn -0.6423 -0.7231 0.2542
vn -0.7231 -0.6423 0.2542
vn 0.7231 -0.6423 0.2542
vn 0.6423 -0.7231 0.2542
vn -0.1213 -0.9856 0.1178
vn 0.1213 -0.9856 0.1178
vn -0.0028 -0.0011 -1.0000
vn -0.8880 -0.3367 0.3134
vn -0.8882 -0.3360 -0.3134
vn -0.9356 -0.3355 -0.1098
vn -0.9323 -0.3449 0.1091
vn -0.9522 0.3056 0.0018
vn 0.9215 0.3884 0.0030
vn -0.6527 -0.7526 -0.0872
vn 0.1213 -0.9856 -0.1178
vn 0.7526 -0.6527 -0.0872
vn 0.9323 -0.3449 -0.1091
vn 0.5232 -0.8465 -0.0981
vn -0.3449 -0.9323 -0.1091
vn -0.8465 -0.5232 -0.0981
vn 0.8879 -0.3367 0.3133
vn 0.7609 -0.6414 0.0984
vn 0.8521 -0.5118 0.1094
vn -0.6414 -0.7609 0.0984
vn -0.5118 -0.8521 0.1094
vn -0.8101 -0.5128 -0.2841
vn -0.7231 -0.6423 -0.2542
vn -0.7526 -0.6527 -0.0872
vn -0.8521 -0.5118 0.1094
vn -0.7609 -0.6414 0.0984
vn -0.3367 -0.8880 -0.3134
vn -0.1181 -0.9345 -0.3359
vn -0.1213 -0.9856 -0.1178
vn 0.5128 -0.8101 -0.2841
vn 0.6423 -0.7231 -0.2542
vn 0.6527 -0.7526 -0.0872
vn 0.5118 -0.8521 0.1094
vn 0.6414 -0.7609 0.0984
vn 0.7231 -0.6423 -0.2542
vn 0.8008 -0.5114 -0.3119
vn 0.8003 -0.5113 -0.3132
vn 0.8465 -0.5232 -0.0981
vn 0.1181 -0.9345 -0.3359
vn 0.3367 -0.8880 -0.3134
vn 0.3449 -0.9323 -0.1091
vn -0.6423 -0.7231 -0.2542
vn -0.5128 -0.8101 -0.2841
vn -0.5232 -0.8465 -0.0981
vn 0.3448 -0.9321 0.1109
vn 0.3355 -0.9357 0.1090
vn -0.3448 -0.9321 0.1109
vn -0.3359 -0.9345 0.1181
vn 0.9356 -0.3357 0.1095
vn 0.8027 -0.5075 0.3134
vn -0.5074 -0.8027 0.3134
vn -0.8027 -0.5074 0.3134
vn 0.5074 -0.8027 0.3134
vn -0.6323 -0.7207 0.2842
vn -0.7207 -0.6323 0.2842
vn 0.7207 -0.6324 0.2842
vn 0.6324 -0.7207 0.2842
vn -0.1180 -0.9856 0.1213
vn 0.1180 -0.9856 0.1213
vn -0.8879 -0.3367 0.3134
vn -0.8879 -0.3367 -0.3134
vn -0.9323 -0.3449 -0.1091
vn -0.9356 -0.3356 0.1098
s off
f 10//1 9//1 36//1
f 35//2 3//2 18//2
f 12//3 8//3 34//3
f 64//4 19//4 67//4
f 32//5 6//5 21//5
f 16//6 22//6 31//6
f 29//7 4//7 24//7
f 78//8 79//8 39//8
f 45//9 42//9 25//9
f 43//10 66//10 70//10
f 12//11 13//11 1//11
f 7//12 27//12 12//12
f 10//13 14//13 2//13
f 5//14 28//14 10//14
f 72//15 74//15 81//15
f 58//16 24//16 55//16
f 57//17 29//17 58//17
f 9//18 15//18 29//18
f 30//19 4//19 15//19
f 14//20 15//20 2//20
f 31//21 54//21 59//21
f 18//22 59//22 52//22
f 3//23 31//23 18//23
f 60//24 21//24 53//24
f 56//25 32//25 60//25
f 8//26 17//26 32//26
f 33//27 6//27 17//27
f 13//28 17//28 1//28
f 72//29 67//29 19//29
f 34//30 56//30 61//30
f 34//31 61//31 74//31
f 7//32 34//32 19//32
f 62//33 18//33 52//33
f 53//34 35//34 62//34
f 21//35 11//35 35//35
f 36//36 57//36 63//36
f 22//37 63//37 54//37
f 5//38 36//38 22//38
f 50//39 51//39 11//39
f 45//40 25//40 5//40
f 64//41 26//41 7//41
f 26//42 44//42 27//42
f 25//43 47//43 28//43
f 48//44 23//44 30//44
f 49//45 20//45 33//45
f 20//46 40//46 50//46
f 28//47 39//47 14//47
f 39//48 30//48 14//48
f 27//49 38//49 13//49
f 38//50 33//50 13//50
f 3//51 46//51 16//51
f 51//52 3//52 11//52
f 77//53 84//53 52//53
f 23//54 71//54 69//54
f 24//55 73//55 55//55
f 24//56 65//56 68//56
f 23//57 65//57 4//57
f 68//15 65//15 80//15
f 77//58 75//58 76//58
f 77//59 79//59 78//59
f 86//15 76//15 75//15
f 84//58 82//58 81//58
f 84//59 86//59 83//59
f 10//60 2//60 9//60
f 35//61 11//61 3//61
f 12//62 1//62 8//62
f 64//63 7//63 19//63
f 32//64 17//64 6//64
f 16//65 5//65 22//65
f 29//66 15//66 4//66
f 43//8 70//8 82//8
f 83//8 86//8 78//8
f 86//8 75//8 78//8
f 43//8 82//8 44//8
f 82//8 83//8 38//8
f 38//8 44//8 82//8
f 40//8 49//8 83//8
f 49//8 38//8 83//8
f 51//8 50//8 83//8
f 50//8 40//8 83//8
f 46//8 37//8 78//8
f 37//8 51//8 83//8
f 78//8 37//8 83//8
f 42//8 45//8 78//8
f 45//8 46//8 78//8
f 39//8 47//8 78//8
f 47//8 42//8 78//8
f 41//8 48//8 79//8
f 48//8 39//8 79//8
f 79//8 71//8 41//8
f 43//67 26//67 66//67
f 12//68 27//68 13//68
f 7//69 26//69 27//69
f 10//70 28//70 14//70
f 5//71 25//71 28//71
f 82//15 70//15 66//15
f 66//15 64//15 82//15
f 64//15 67//15 81//15
f 82//15 64//15 81//15
f 67//15 72//15 81//15
f 58//72 29//72 24//72
f 57//73 9//73 29//73
f 9//74 2//74 15//74
f 30//75 23//75 4//75
f 14//76 30//76 15//76
f 31//77 22//77 54//77
f 18//78 31//78 59//78
f 3//79 16//79 31//79
f 60//80 32//80 21//80
f 56//81 8//81 32//81
f 8//82 1//82 17//82
f 33//83 20//83 6//83
f 13//84 33//84 17//84
f 34//85 8//85 56//85
f 74//86 72//86 34//86
f 72//87 19//87 34//87
f 7//88 12//88 34//88
f 62//89 35//89 18//89
f 53//90 21//90 35//90
f 21//91 6//91 11//91
f 36//92 9//92 57//92
f 22//93 36//93 63//93
f 5//94 10//94 36//94
f 11//95 6//95 50//95
f 6//96 20//96 50//96
f 5//97 16//97 45//97
f 16//98 46//98 45//98
f 64//99 66//99 26//99
f 26//100 43//100 44//100
f 25//101 42//101 47//101
f 48//102 41//102 23//102
f 49//103 40//103 20//103
f 28//104 47//104 39//104
f 39//105 48//105 30//105
f 27//106 44//106 38//106
f 38//107 49//107 33//107
f 3//108 37//108 46//108
f 51//109 37//109 3//109
f 55//53 73//53 80//53
f 77//53 76//53 85//53
f 55//53 80//53 58//53
f 80//53 77//53 57//53
f 57//53 58//53 80//53
f 54//53 63//53 77//53
f 63//53 57//53 77//53
f 52//53 59//53 77//53
f 59//53 54//53 77//53
f 53//53 62//53 84//53
f 62//53 52//53 84//53
f 56//53 60//53 84//53
f 60//53 53//53 84//53
f 74//53 61//53 81//53
f 61//53 56//53 81//53
f 84//53 81//53 56//53
f 77//53 85//53 84//53
f 23//110 41//110 71//110
f 24//111 68//111 73//111
f 24//112 4//112 65//112
f 23//113 69//113 65//113
f 71//15 79//15 69//15
f 79//15 80//15 65//15
f 69//15 79//15 65//15
f 80//15 73//15 68//15
f 77//58 78//58 75//58
f 77//59 80//59 79//59
f 86//15 85//15 76//15
f 84//58 83//58 82//58
f 84//59 85//59 86//59
